# xmcd CD database file generated by OrangeCD 6.1
#
# Track frame offsets:
#	150
#	12460
#	27139
#	38703
#	50271
#	62432
#	73408
#	86274
#	96307
#	108891
#	123360
#	135315
#	146967
#	157541
#	171281
#	182026
#	191617
#	208437
#	223372
#	236321
#	247610
#	259652
#	268686
#	283237
#
# Disc length: 3976 seconds
#
# Revision: 0
# Processed by: cddbd v1.5.2PL0 Copyright (c) Steve Scherf et al.
# Submitted via: OrangeCD 6.1
#
DISCID=590f8618
DTITLE=Various Artist - Country Collection
DYEAR=2007
DGENRE=Country
TTITLE0=Charlie Rich - Behind Closed Doors
TTITLE1=David Frizzell - Country Music Love Affair
TTITLE2=Eddie Raven - Dealin' with the Devil
TTITLE3=Eddie Raven - Desperate Dreams
TTITLE4=Waylon Jennings - Don't Think Twice, It's All Right
TTITLE5=Gene Watson - Farewell Party
TTITLE6=Danny Davis and The Nashville Brass - From Dixie With Love
TTITLE7=Bobby Bare - Help Me Make It Through the Night
TTITLE8=Conway Twitty - I See the Want To in Your Eyes
TTITLE9=Ed Bruce - If It Was Easy
TTITLE10=Porter Wagoner - I'll Start Tomorrow
TTITLE11=Willie Nelson - I'll Stay Around
TTITLE12=Conway Twitty - It's Only Make Believe
TTITLE13=Porter Wagoner - Keep On Loving You
TTITLE14=Waylon Jennings - Lorena
TTITLE15=Porter Wagoner - Louisiana Saturday Night
TTITLE16=Bobby Bare - Sylvia's Mother
TTITLE17=Olivia Newton-John - Take Me Home, Country Roads
TTITLE18=Charlie Rich - The Most Beautiful Girl
TTITLE19=George Jones - There's No Justice
TTITLE20=Conway Twitty - To See My Angel Cry
TTITLE21=Willie Nelson - Waiting Time
TTITLE22=Eddie Raven - Who Do You Know In California?
TTITLE23=Ed Bruce - You're the Best Break This Old Heart Ever Had
EXTD=
EXTT0=
EXTT1=
EXTT2=
EXTT3=
EXTT4=
EXTT5=
EXTT6=
EXTT7=
EXTT8=
EXTT9=
EXTT10=
EXTT11=
EXTT12=
EXTT13=
EXTT14=
EXTT15=
EXTT16=
EXTT17=
EXTT18=
EXTT19=
EXTT20=
EXTT21=
EXTT22=
EXTT23=
PLAYORDER=
